<svg xmlns="http://www.w3.org/2000/svg" width="240" height="240" viewBox="0 0 240 240" fill="none" role="img" aria-label="Langlingo">
  <defs>
    <linearGradient id="g" x1="44" y1="38" x2="196" y2="206" gradientUnits="userSpaceOnUse">
      <stop stop-color="#7A60F6" />
      <stop offset="1" stop-color="#B43ECB" />
    </linearGradient>
    <filter id="s" x="-20" y="-20" width="280" height="280" color-interpolation-filters="sRGB">
      <feDropShadow dx="0" dy="10" stdDeviation="10" flood-color="#000000" flood-opacity="0.25" />
    </filter>
  </defs>

  <!-- Speech bubble -->
  <path
    filter="url(#s)"
    d="M64 44h112c15.5 0 28 12.5 28 28v74c0 15.5-12.5 28-28 28H120l-28 22c-3.9 3.1-9.6 0.3-9.6-4.7v-17.3H64c-15.5 0-28-12.5-28-28V72c0-15.5 12.5-28 28-28Z"
    fill="url(#g)"
    stroke="rgba(0,0,0,0.25)"
    stroke-width="2"
  />

  <!-- Monogram -->
  <path
    d="M84 82v78h18V99h24v61h18V82H84Zm72 0v78h18V82h-18Z"
    fill="#FFFFFF"
    opacity="0.96"
  />
</svg>
